HIERARCHY
ROOT Hips
{
	OFFSET 0.00000 0.00000 0.00000
	CHANNELS 6 Xposition Yposition Zposition Zrotation Yrotation Xrotation 
	JOINT LHipJoint
	{
		OFFSET 0 0 0
		CHANNELS 3 Zrotation Yrotation Xrotation
		JOINT LeftUpLeg
		{
			OFFSET 1.88772 -1.62769 0.85636
			CHANNELS 3 Zrotation Yrotation Xrotation
			JOINT LeftLeg
			{
				OFFSET 2.39836 -6.58946 0.00000
				CHANNELS 3 Zrotation Yrotation Xrotation
				JOINT LeftFoot
				{
					OFFSET 2.78523 -7.65237 0.00000
					CHANNELS 3 Zrotation Yrotation Xrotation
					JOINT LeftToeBase
					{
						OFFSET 0.19551 -0.53715 1.90694
						CHANNELS 3 Zrotation Yrotation Xrotation
						End Site
						{
							OFFSET 0.00000 -0.00000 0.99735
						}
					}
				}
			}
		}
	}
	JOINT RHipJoint
	{
		OFFSET 0 0 0
		CHANNELS 3 Zrotation Yrotation Xrotation
		JOINT RightUpLeg
		{
			OFFSET -1.74282 -1.62769 0.85636
			CHANNELS 3 Zrotation Yrotation Xrotation
			JOINT RightLeg
			{
				OFFSET -2.36062 -6.48575 0.00000
				CHANNELS 3 Zrotation Yrotation Xrotation
				JOINT RightFoot
				{
					OFFSET -2.76258 -7.59014 0.00000
					CHANNELS 3 Zrotation Yrotation Xrotation
					JOINT RightToeBase
					{
						OFFSET -0.19308 -0.53048 2.03952
						CHANNELS 3 Zrotation Yrotation Xrotation
						End Site
						{
							OFFSET -0.00000 -0.00000 1.06031
						}
					}
				}
			}
		}
	}
	JOINT LowerBack
	{
		OFFSET 0 0 0
		CHANNELS 3 Zrotation Yrotation Xrotation
		JOINT Spine
		{
			OFFSET -0.08299 2.03160 -0.30721
			CHANNELS 3 Zrotation Yrotation Xrotation
			JOINT Spine1
			{
				OFFSET -0.01030 2.00603 0.13891
				CHANNELS 3 Zrotation Yrotation Xrotation
				JOINT Neck
				{
					OFFSET 0 0 0
					CHANNELS 3 Zrotation Yrotation Xrotation
					JOINT Neck1
					{
						OFFSET 0.04282 1.69578 0.19991
						CHANNELS 3 Zrotation Yrotation Xrotation
						JOINT Head
						{
							OFFSET -0.08665 1.66622 -0.03785
							CHANNELS 3 Zrotation Yrotation Xrotation
							End Site
							{
								OFFSET -0.03699 1.83329 -0.04094
							}
						}
					}
				}
				JOINT LeftShoulder
				{
					OFFSET 0 0 0
					CHANNELS 3 Zrotation Yrotation Xrotation
					JOINT LeftArm
					{
						OFFSET 3.04219 1.50803 -0.05347
						CHANNELS 3 Zrotation Yrotation Xrotation
						JOINT LeftForeArm
						{
							OFFSET 5.79199 -0.00000 0.00000
							CHANNELS 3 Zrotation Yrotation Xrotation
							JOINT LeftHand
							{
								OFFSET 3.49908 -0.00000 0.00000
								CHANNELS 3 Zrotation Yrotation Xrotation
								JOINT LeftFingerBase
								{
									OFFSET 0 0 0
									CHANNELS 3 Zrotation Yrotation Xrotation
									JOINT LeftHandIndex1
									{
										OFFSET 0.59386 -0.00000 0.00000
										CHANNELS 3 Zrotation Yrotation Xrotation
										End Site
										{
											OFFSET 0.47879 -0.00000 0.00000
										}
									}
								}
								JOINT LThumb
								{
									OFFSET 0 0 0
									CHANNELS 3 Zrotation Yrotation Xrotation
									End Site
									{
										OFFSET 0.48610 -0.00000 0.48610
									}
								}
							}
						}
					}
				}
				JOINT RightShoulder
				{
					OFFSET 0 0 0
					CHANNELS 3 Zrotation Yrotation Xrotation
					JOINT RightArm
					{
						OFFSET -3.30316 1.18853 0.11175
						CHANNELS 3 Zrotation Yrotation Xrotation
						JOINT RightForeArm
						{
							OFFSET -5.73799 -0.00000 0.00000
							CHANNELS 3 Zrotation Yrotation Xrotation
							JOINT RightHand
							{
								OFFSET -3.57916 -0.00000 -0.00000
								CHANNELS 3 Zrotation Yrotation Xrotation
								JOINT RightFingerBase
								{
									OFFSET 0 0 0
									CHANNELS 3 Zrotation Yrotation Xrotation
									JOINT RightHandIndex1
									{
										OFFSET -0.61558 -0.00000 0.00000
										CHANNELS 3 Zrotation Yrotation Xrotation
										End Site
										{
											OFFSET -0.49629 -0.00000 0.00000
										}
									}
								}
								JOINT RThumb
								{
									OFFSET 0 0 0
									CHANNELS 3 Zrotation Yrotation Xrotation
									End Site
									{
										OFFSET -0.50387 -0.00000 0.50387
									}
								}
							}
						}
					}
				}
			}
		}
	}
}
MOTION
Frames: 10
Frame Time: 0.0104167
0.00 0.00 0.00 0 0 0 0 0 0 -21 0 0 0 0 0 0 0 0 0 0 0 0 0 0 21 0 0 0 0 0 0 0 0 0 0 0 0 0 0 0 0 0 0 0 0 0 0 -16 0 0 21 0 0 11 0 0 0 -8 0 0 0 0 0 0 0 0 0 0 0 0 0 0 0 0 0 0 0 0 8 0 0 0 0 0 0 0 0 0 0 0 0 0 0 0 0 0
0.00 0.00 0.00 157.0160 -80.3894 -148.8570 0.0000 0.0000 0.0000 -1.3748 -23.8448 -20.1053 2.2679 9.4031 27.0645 1.3287 5.8519 -24.5969 5.1403 13.5401 41.4256 0.0000 0.0000 0.0000 22.5762 5.9728 -7.3422 -1.3035 -7.2329 20.4071 -0.5860 -15.0056 -26.5586 -0.0064 0.5151 -1.4154 -0.8318 1.1678 1.5468 -0.3283 1.5145 -1.9999 0.0673 0.7649 -2.9322 7.5461 9.7869 -2.8632 -9.7808 12.8850 -1.2812 -4.1474 6.3540 1.3394 0.0000 -0.0000 0.0000 -79.6126 27.1782 20.8938 11.6892 -19.3369 -1.9982 -0.0000 0.0000 -14.2281 3.2847 -18.7542 -1.0571 -7.1250 0.0000 -0.0000 -16.1191 11.7352 13.0437 0.0000 -0.0000 0.0000 80.8058 -21.5005 23.5846 -14.1528 22.9527 -2.8874 0.0000 -0.0000 -2.8807 -15.4113 -29.0681 7.6281 7.1250 -0.0000 -0.0000 17.5764 -59.0761 -6.1643
0.00 0.00 0.00 172.0100 -75.9141 -162.2480 0.0000 0.0000 0.0000 -20.6774 -10.2906 -19.3675 2.2971 9.4592 27.2426 1.0400 3.7949 -20.9849 0.5094 4.5752 12.7008 0.0000 0.0000 0.0000 8.7046 6.6030 -12.3099 -2.6279 -10.0669 29.1935 1.6818 -22.8242 -14.4722 -0.7812 5.6428 -15.7514 -8.6540 -1.2971 1.0953 1.0958 -2.0993 -4.4310 6.1191 -0.7016 -4.9197 1.9433 12.9960 0.0692 -7.9923 17.2673 -1.3086 -2.6347 8.6215 0.5032 -0.0000 -0.0000 0.0000 -85.8537 17.7629 27.4821 29.1192 -40.1264 -10.8375 -0.0000 0.0000 -22.8192 11.6500 -20.9723 -4.2205 -7.1250 0.0000 -0.0000 -10.7791 8.9071 9.1479 -0.0000 -0.0000 0.0000 75.0431 -18.0694 47.0189 -26.5630 37.7592 -9.2302 0.0000 -0.0000 -8.3769 -17.9536 -28.6514 8.8311 7.1250 -0.0000 -0.0000 14.5923 -59.2534 -5.1489
0.00 0.00 0.00 180.6970 -73.2915 -169.0080 0.0000 0.0000 0.0000 -17.4757 -8.4360 -27.0618 3.3729 11.2755 33.2147 1.1744 2.0942 -21.3254 0.6951 5.3297 14.8513 0.0000 0.0000 0.0000 12.4895 1.8455 -12.9981 -2.0957 -9.0626 25.9913 0.4447 -18.2729 -21.6520 -0.1343 -2.3623 6.5079 -6.9351 2.6385 2.7085 -3.0977 2.9247 -3.3031 0.4425 1.5967 -5.1585 6.2600 8.5746 -3.4353 -5.2142 11.1557 -2.9658 -2.4946 5.5078 0.3303 -0.0000 0.0000 0.0000 -73.4053 6.4507 7.8008 5.8646 -10.0362 -0.5154 -0.0000 -0.0000 12.1541 7.3475 -17.6608 -2.2402 -7.1250 0.0000 -0.0000 -13.5504 12.5416 10.5921 -0.0000 0.0000 0.0000 84.7879 -9.1971 49.3959 -18.0293 28.1946 -4.5631 0.0000 -0.0000 -5.4691 -14.0462 -28.4536 6.7976 7.1250 -0.0000 -0.0000 18.5896 -58.1881 -6.1356
0.00 0.00 0.00 179.0840 -72.2241 -168.7920 0.0000 0.0000 0.0000 -14.2851 -7.3805 -30.8336 4.1414 12.3463 36.9682 0.8938 1.7119 -18.5555 0.6448 5.1368 14.2992 0.0000 0.0000 0.0000 13.4202 3.4195 -2.6965 -1.1035 -6.6747 18.7550 -0.2861 -16.2798 -25.6368 -0.4103 4.1118 -11.3915 -5.8781 3.0073 1.0141 -3.4160 3.6115 -3.1064 -0.4117 1.8695 -3.9345 5.0447 5.6840 -2.3166 -2.4501 7.4404 -1.5731 -1.5180 3.6876 0.1900 -0.0000 0.0000 0.0000 -76.1191 -17.5120 21.2056 14.9595 -24.0897 -3.2094 -0.0000 0.0000 -18.4931 10.9854 -17.7302 -3.3831 -7.1250 0.0000 -0.0000 -11.1776 12.1940 8.7363 -0.0000 0.0000 0.0000 80.5849 13.3037 66.1112 -30.0856 40.9666 -11.4657 0.0000 -0.0000 -9.5796 -14.5968 -30.6915 7.5716 7.1250 -0.0000 -0.0000 19.6251 -60.4222 -7.5512
0.00 0.00 0.00 174.5890 -69.8444 -166.1450 0.0000 0.0000 0.0000 -12.6451 -8.2025 -28.7081 3.6923 11.7393 34.8158 0.6547 5.2970 -18.1235 0.3611 3.8604 10.6844 0.0000 0.0000 0.0000 14.8881 3.1261 -4.2634 -1.2798 -7.1693 20.2180 -0.7575 -15.6868 -28.5746 -0.5375 4.6977 -13.0484 -5.8941 2.4697 1.1794 -3.0855 2.9131 -2.8811 -0.0250 1.5264 -3.7829 5.5166 5.3205 -3.3957 -1.8340 6.8824 0.2177 -1.3581 3.4260 0.9039 -0.0000 -0.0000 0.0000 -72.8273 -24.2466 31.9638 78.1472 -59.4624 -49.7537 -0.0000 0.0000 -33.4906 22.4603 -22.4570 -8.9738 -7.1250 0.0000 -0.0000 -4.0403 5.9333 3.6102 -0.0000 -0.0000 0.0000 79.4782 30.4677 60.7361 -70.7896 58.5586 -43.4438 0.0000 -0.0000 -15.4956 -26.5673 -27.7693 13.1148 7.1250 -0.0000 -0.0000 4.5012 -60.4098 -1.6935
0.00 0.00 0.00 175.6690 -69.7406 -166.9950 0.0000 0.0000 0.0000 -11.4153 -8.5593 -28.7328 3.5670 11.5607 34.1952 0.6771 5.8472 -18.7575 0.7851 5.6567 15.7916 0.0000 0.0000 0.0000 15.8606 3.6878 -4.8563 -1.3223 -7.2827 20.5558 -1.0226 -14.7599 -29.4801 -0.0008 -0.1788 0.4912 -5.5566 1.9350 0.8560 -2.3068 2.2786 -2.9599 0.6338 1.2227 -3.6671 5.2930 5.5326 -2.8125 -2.1259 7.2158 0.2495 -1.4193 3.5942 0.8308 -0.0000 -0.0000 0.0000 -72.0963 -26.5335 31.1747 97.4336 -59.7902 -66.4331 -0.0000 0.0000 -32.4921 23.3789 -22.5978 -9.4316 -7.1250 0.0000 -0.0000 -3.4801 5.6264 3.1280 -0.0000 -0.0000 0.0000 78.7267 34.3093 60.8698 -81.2104 59.7061 -52.3955 0.0000 -0.0000 -14.7759 -28.3509 -26.8895 13.7145 7.1250 -0.0000 -0.0000 2.0544 -59.9191 -0.7482
0.00 0.00 0.00 175.1130 -69.5937 -166.5690 0.0000 0.0000 0.0000 -10.5585 -9.4951 -28.1410 3.5275 11.5036 33.9979 0.8290 5.0284 -19.7378 1.5160 7.7755 22.0341 0.0000 0.0000 0.0000 16.4375 2.8724 -5.4899 -1.3111 -7.2530 20.4670 -0.7264 -15.6698 -28.3331 -0.1062 2.1013 -5.7856 -5.3096 2.0783 0.8715 -2.4205 2.4785 -2.8554 0.3732 1.3105 -3.5607 5.5636 5.2302 -3.1685 -1.8835 6.7745 0.2177 -1.3906 3.3727 0.8651 -0.0000 0.0000 0.0000 -70.6984 -30.1299 31.9907 113.2626 -57.8531 -80.0008 -0.0000 0.0000 -32.9623 23.5838 -24.9445 -10.4320 -7.1250 0.0000 -0.0000 -3.6186 3.1176 3.4234 -0.0000 0.0000 0.0000 78.3387 37.4107 58.5488 -90.9143 59.9968 -60.7918 0.0000 -0.0000 -13.8323 -28.9718 -26.1811 13.7275 7.1250 -0.0000 -0.0000 1.0703 -59.3115 -0.3742
0.00 0.00 0.00 175.3320 -69.4669 -166.8110 0.0000 0.0000 0.0000 -8.9481 -10.8353 -27.1067 3.3019 11.1684 32.8500 1.0058 4.9172 -21.3283 2.6782 10.1549 29.4797 0.0000 0.0000 0.0000 17.4978 3.1239 -5.9933 -1.3120 -7.2555 20.4745 -0.7062 -15.5892 -28.1000 -0.2546 3.2465 -8.9657 -5.2326 1.6800 0.5017 -1.6982 2.0296 -2.6038 1.1124 1.0927 -3.0906 5.4300 5.4672 -2.9697 -2.0948 7.1103 0.0096 -1.4343 3.5370 0.7823 0.0000 -0.0000 0.0000 -69.2227 -35.4425 30.8972 129.7365 -53.1012 -93.6152 -0.0000 0.0000 -31.8516 28.9798 -28.8217 -14.9494 -7.1250 0.0000 -0.0000 -0.9889 -2.1860 1.0261 0.0000 -0.0000 0.0000 78.0663 42.5372 57.8275 -103.1801 59.3333 -71.3888 0.0000 -0.0000 -13.9033 -31.5498 -24.8822 14.4852 7.1250 -0.0000 -0.0000 -2.3189 -58.5223 0.7671
0.00 0.00 0.00 177.2280 -70.2236 -168.3530 0.0000 0.0000 0.0000 -6.9008 -11.6787 -26.9216 2.8955 10.5239 30.6904 0.5762 8.8156 -20.1568 1.6342 8.0584 22.8917 0.0000 0.0000 0.0000 19.5550 3.1908 -6.9094 -1.3370 -7.3215 20.6715 -1.1294 -13.8471 -29.3411 -0.0028 -0.3390 0.9315 -3.4611 2.1550 -0.7276 -1.6565 2.7658 -2.6545 0.1952 1.4127 -2.4033 6.1812 4.6687 -1.8122 -2.1393 6.0957 -0.2188 -1.6337 3.0327 0.5032 0.0000 -0.0000 0.0000 -69.0172 -44.1860 32.4177 143.9028 -45.5799 -104.4081 -0.0000 0.0000 -31.8787 25.6395 -27.6845 -12.5710 -7.1250 0.0000 -0.0000 -2.7544 -0.1876 2.7666 0.0000 -0.0000 0.0000 75.7705 47.5339 51.4237 -119.0775 56.5508 -84.8902 0.0000 -0.0000 -15.7257 -30.7886 -23.6259 13.4304 7.1250 -0.0000 -0.0000 -1.7563 -56.9561 0.5147
